<?xml version="1.0" encoding="utf-8"?>
<!-- Generator: Adobe Illustrator 16.0.0, SVG Export Plug-In . SVG Version: 6.00 Build 0)  -->
<!DOCTYPE svg PUBLIC "-//W3C//DTD SVG 1.1//EN" "http://www.w3.org/Graphics/SVG/1.1/DTD/svg11.dtd">
<svg version="1.1" id="Capa_1" xmlns="http://www.w3.org/2000/svg" xmlns:xlink="http://www.w3.org/1999/xlink" x="0px" y="0px"
	 width="720px" height="360px" viewBox="0 0 720 360" enable-background="new 0 0 720 360" xml:space="preserve">
<path fill="#FFFFFF" d="M531.423,348.493L430.429,243.462c25.76-25.835,41.719-61.45,41.719-100.729
	C472.147,64.026,408.121,0,329.415,0c-78.708,0-142.733,64.026-142.733,142.733c0,78.708,64.026,142.734,142.733,142.734
	c34.548,0,66.255-12.351,90.968-32.843l101.238,105.289c1.332,1.394,3.113,2.087,4.9,2.087c1.699,0,3.392-0.632,4.711-1.896
	C533.938,355.501,534.019,351.198,531.423,348.493z M329.415,271.873c-71.21,0-129.14-57.93-129.14-129.14
	c0-71.21,57.929-129.139,129.14-129.139s129.139,57.929,129.139,129.139C458.554,213.943,400.618,271.873,329.415,271.873z"/>
</svg>
